<svg xmlns="http://www.w3.org/2000/svg" viewBox="0 0 1921.916 861.919">
  <defs>
    <style>
      .cls-1 {
        fill: none;
      }

      .cls-2, .cls-3 {
        stroke: none;
      }

      .cls-3 {
        fill: rgba(255,255,255,0.42);
      }
    </style>
  </defs>
  <g id="Group_68" data-name="Group 68" transform="translate(0 0.41)">
    <g id="Path_79" data-name="Path 79" class="cls-1" transform="translate(155.4 435.271)">
      <path class="cls-2" d="M-80.582-435.271S876.176,30.4,1149,101.244,1765.327-2.734,1765.327-2.734V425.612H-155.4V-435.271Z"/>
      <path class="cls-3" d="M 1764.326416015625 424.6116638183594 L 1764.326416015625 -1.114665508270264 C 1759.979858398438 1.044425845146179 1746.06396484375 7.840976238250732 1724.9150390625 17.07070350646973 C 1709.82666015625 23.65546607971191 1694.059326171875 30.17403602600098 1678.05126953125 36.44498825073242 C 1658.041748046875 44.28356170654297 1637.5966796875 51.75570297241211 1617.284545898438 58.65356063842773 C 1565.578125 76.21284484863281 1514.407470703125 90.20379638671875 1465.193603515625 100.2378463745117 C 1435.968627929688 106.196418762207 1407.1171875 110.8076095581055 1379.441284179688 113.9435577392578 C 1364.563354492188 115.629508972168 1349.731201171875 116.9214172363281 1335.3564453125 117.7837982177734 C 1320.334228515625 118.6850280761719 1305.395751953125 119.1421356201172 1290.952880859375 119.1421356201172 C 1290.94580078125 119.1421356201172 1290.937377929688 119.1421356201172 1290.930297851562 119.1421356201172 C 1266.201293945312 119.1414184570312 1242.030029296875 117.802131652832 1219.087890625 115.1614151000977 C 1207.0703125 113.7780838012695 1195.142211914062 112.009033203125 1183.63525390625 109.9028472900391 C 1171.783569335938 107.7335586547852 1160.045288085938 105.1461791992188 1148.746704101562 102.2123718261719 C 1132.107177734375 97.89165496826172 1112.313354492188 91.93022918701172 1089.91455078125 84.49379730224609 C 1068.498168945312 77.38332366943359 1044.129272460938 68.7349853515625 1017.485046386719 58.78855895996094 C 967.9234008789062 40.28689193725586 908.6774291992188 16.62141799926758 841.3931274414062 -11.55024909973145 C 728.0822143554688 -58.99334335327148 590.1686401367188 -119.9307250976562 431.483154296875 -192.6702423095703 C 290.3033752441406 -257.38525390625 158.4745635986328 -319.6564331054688 72.74433135986328 -360.5 C -17.40565490722656 -403.44921875 -76.83938598632812 -432.3390197753906 -80.81197357177734 -434.2712097167969 L -154.3997192382812 -434.2712097167969 L -154.3997192382812 424.6116638183594 L 1764.326416015625 424.6116638183594 M 1765.326416015625 425.6116638183594 L -155.3997192382812 425.6116638183594 L -155.3997192382812 -435.2712097167969 L -80.58185577392578 -435.2712097167969 C -80.58185577392578 -435.2712097167969 876.17578125 30.40213203430176 1148.998168945312 101.244514465332 C 1194.95703125 113.1783676147461 1242.939819335938 118.1408767700195 1290.930297851562 118.1421203613281 C 1527.82275390625 118.1482696533203 1765.326416015625 -2.733582496643066 1765.326416015625 -2.733582496643066 L 1765.326416015625 425.6116638183594 Z"/>
    </g>
    <g id="Path_80" data-name="Path 80" class="cls-1" transform="translate(11 340)">
      <path class="cls-2" d="M408.168-339.977S573.613,30.745,820.857,166.649c337.765,185.661,1090.059,70.485,1090.059,70.485v282.1H-10.824V-340.41Z"/>
      <path class="cls-3" d="M 1909.915771484375 518.2359619140625 L 1909.915771484375 238.295654296875 C 1906.008178710938 238.8791656494141 1892.300903320312 240.8902435302734 1870.90625 243.6433258056641 C 1847.42578125 246.6647491455078 1809.61572265625 251.2238006591797 1762.831787109375 255.7854614257812 C 1710.248657226562 260.9123840332031 1657.277954101562 264.9976196289062 1605.391235351562 267.9271240234375 C 1540.53125 271.5895080566406 1477.191284179688 273.4464111328125 1417.130737304688 273.4464111328125 L 1417.048217773438 273.4464111328125 C 1360.697387695312 273.4447631835938 1306.356201171875 271.8011779785156 1255.533813476562 268.5611877441406 C 1227.863647460938 266.79736328125 1200.709594726562 264.5249938964844 1174.826049804688 261.8076171875 C 1147.56982421875 258.9461669921875 1120.971923828125 255.5121307373047 1095.771728515625 251.6009368896484 C 1069.332153320312 247.4976043701172 1043.699340820312 242.7557067871094 1019.585327148438 237.5066528320312 C 994.3655395507812 232.0168914794922 970.1060180664062 225.8199920654297 947.4812622070312 219.0883178710938 C 923.8834228515625 212.067138671875 901.406005859375 204.2680816650391 880.6729125976562 195.9080810546875 C 859.1000366210938 187.2092742919922 838.8129272460938 177.6599884033203 820.3750610351562 167.5252227783203 C 805.2857666015625 159.2309417724609 789.9893188476562 149.7637939453125 774.9105224609375 139.3866577148438 C 760.4905395507812 129.4628448486328 745.88623046875 118.4430847167969 731.50341796875 106.6333236694336 C 717.7919921875 95.37499237060547 703.9197998046875 83.10165405273438 690.2724609375 70.15403747558594 C 677.309326171875 57.85570526123047 664.2095947265625 44.62737274169922 651.3372192382812 30.83665657043457 C 606.8153076171875 -16.86191368103027 562.9503173828125 -73.35643768310547 520.9609985351562 -137.0776214599609 C 504.4671936035156 -162.1078643798828 488.2265014648438 -188.327392578125 472.6898193359375 -215.0078735351562 C 460.2607727050781 -236.3521575927734 448.251953125 -258.0378723144531 436.9967346191406 -279.4628601074219 C 419.5155944824219 -312.7389526367188 409.2673950195312 -335.1216430664062 407.5215454101562 -338.9773559570312 L -9.824223518371582 -339.4087219238281 L -9.824223518371582 518.2359619140625 L 1909.915771484375 518.2359619140625 M 1910.915771484375 519.2359619140625 L -10.82422351837158 519.2359619140625 L -10.82422351837158 -340.4097595214844 L 408.1679077148438 -339.9766845703125 C 408.1679077148438 -339.9766845703125 573.6131591796875 30.74522972106934 820.8567504882812 166.6488037109375 C 971.5767211914062 249.4957122802734 1204.921752929688 272.4403381347656 1417.048217773438 272.4463806152344 C 1680.298583984375 272.4539184570312 1910.915771484375 237.1338043212891 1910.915771484375 237.1338043212891 L 1910.915771484375 519.2359619140625 Z"/>
    </g>
    <g id="Path_81" data-name="Path 81" class="cls-1" transform="translate(14.308 431.096)">
      <path class="cls-2" d="M-14.308-169.316S655.763,176.178,934.1,222.141c281.543,46.492,970.381-133.048,970.381-133.048v341.32H-14.308Z"/>
      <path class="cls-3" d="M 1903.48583984375 429.4134826660156 L 1903.48583984375 90.38518524169922 C 1896.86865234375 92.09429168701172 1864.457397460938 100.4072265625 1815.360229492188 112.0563278198242 C 1783.068237304688 119.7179946899414 1749.982543945312 127.3025131225586 1717.022094726562 134.5994262695312 C 1675.821166992188 143.7206115722656 1634.70068359375 152.4151306152344 1594.802734375 160.4418029785156 C 1493.240844726562 180.8739471435547 1398.8896484375 197.1541748046875 1314.37060546875 208.8301391601562 C 1264.18212890625 215.7634735107422 1216.946899414062 221.1294250488281 1173.976806640625 224.7787017822266 C 1150.877563476562 226.7406158447266 1128.555419921875 228.2441864013672 1107.63037109375 229.2479858398438 C 1085.751342773438 230.2975158691406 1064.791381835938 230.8296508789062 1045.3330078125 230.8296508789062 C 1024.301879882812 230.8296508789062 1004.425659179688 230.2077484130859 986.257080078125 228.9813232421875 C 967.3282470703125 227.7037048339844 949.7268676757812 225.7341766357422 933.9418334960938 223.1275177001953 C 916.9606323242188 220.3234710693359 897.9175415039062 216.2901306152344 877.3416137695312 211.14013671875 C 857.6677856445312 206.2160797119141 836.0687255859375 200.1394195556641 813.1437377929688 193.0796508789062 C 770.5037231445312 179.9482269287109 721.7153930664062 162.9372711181641 668.1337280273438 142.5194244384766 C 577.9056396484375 108.1368026733398 472.5877990722656 63.57989501953125 355.1056518554688 10.08632469177246 C 308.9542236328125 -10.92819881439209 260.7911376953125 -33.38915252685547 211.9542236328125 -56.67319869995117 C 172.8851776123047 -75.30033874511719 133.2994537353516 -94.49272155761719 94.29731750488281 -113.7174835205078 C 34.77138900756836 -143.0586242675781 -5.333211421966553 -163.5829467773438 -13.30839729309082 -167.6775512695312 L -13.30839729309082 429.4134826660156 L 1903.48583984375 429.4134826660156 M 1904.48583984375 430.4134826660156 L -14.30839729309082 430.4134826660156 L -14.30839729309082 -169.3160552978516 C -14.30839729309082 -169.3160552978516 655.7632446289062 176.1775207519531 934.1046752929688 222.1408538818359 C 966.3763427734375 227.469970703125 1004.009643554688 229.8297119140625 1045.333129882812 229.8297119140625 C 1364.522705078125 229.8297119140625 1904.48583984375 89.09323120117188 1904.48583984375 89.09323120117188 L 1904.48583984375 430.4134826660156 Z"/>
    </g>
  </g>
</svg>
