<?xml version="1.0" encoding="utf-8"?>
<!-- Generator: Adobe Illustrator 22.0.1, SVG Export Plug-In . SVG Version: 6.00 Build 0)  -->
<svg version="1.1" xmlns="http://www.w3.org/2000/svg" xmlns:xlink="http://www.w3.org/1999/xlink" x="0px" y="0px"
	 viewBox="0 0 255 189.7" style="enable-background:new 0 0 255 189.7;" xml:space="preserve">
<style type="text/css">
	.st0{display:none;}
	.st1{display:inline;fill:#396DFF;}
	
		.st2{display:inline;fill:#6C93FF;stroke:#000000;stroke-width:2;stroke-linecap:round;stroke-linejoin:round;stroke-miterlimit:10;}
	.st3{fill:#6C93FF;stroke:#000000;stroke-width:2;stroke-linecap:round;stroke-linejoin:round;stroke-miterlimit:10;}
	.st4{display:inline;}
	.st5{fill:none;stroke:#FFFFFF;stroke-width:2;stroke-linecap:round;stroke-linejoin:round;stroke-miterlimit:10;}
	.st6{fill:none;stroke:#000000;stroke-width:2;stroke-linecap:round;stroke-linejoin:round;stroke-miterlimit:10;}
	.st7{display:inline;fill:none;stroke:#FFFFFF;stroke-width:2;stroke-linecap:round;stroke-linejoin:round;stroke-miterlimit:10;}
	.st8{fill:#FFFFFF;stroke:#000000;stroke-width:2;stroke-linejoin:round;stroke-miterlimit:10;}
	.st9{fill:none;stroke:#000000;stroke-width:2;stroke-linejoin:round;stroke-miterlimit:10;}
	.st10{fill:#231F20;stroke:#98D01B;stroke-width:2;stroke-linecap:round;stroke-miterlimit:10;}
	.st11{fill:none;stroke:#231F20;stroke-width:2;stroke-linecap:round;stroke-miterlimit:10;}
	.st12{fill:none;stroke:#98D01B;stroke-width:2;stroke-linecap:round;stroke-miterlimit:10;}
	.st13{fill:none;stroke:#F95458;stroke-width:2;stroke-linecap:round;stroke-miterlimit:10;}
	.st14{fill:none;stroke:#6C93FF;stroke-width:2;stroke-linecap:round;stroke-miterlimit:10;}
	.st15{fill:#E5E5E5;stroke:#E5E5E5;stroke-miterlimit:10;}
	.st16{fill:#F95458;}
	.st17{fill:#98D01B;}
	.st18{fill:#6C93FF;stroke:#000000;stroke-width:2;stroke-linejoin:round;stroke-miterlimit:10;}
	.st19{fill:#FFFFFF;}
	.st20{fill:none;stroke:#E5E5E5;stroke-width:2;stroke-linecap:round;stroke-miterlimit:10;}
	.st21{fill:#FFFFFF;stroke:#000000;stroke-width:2;stroke-linecap:round;stroke-linejoin:round;stroke-miterlimit:10;}
	.st22{fill:#F95458;stroke:#000000;stroke-width:2;stroke-linecap:round;stroke-linejoin:round;stroke-miterlimit:10;}
	.st23{fill:#396DFF;stroke:#000000;stroke-width:2;stroke-linecap:round;stroke-linejoin:round;stroke-miterlimit:10;}
	
		.st24{display:inline;fill:#FFFFFF;stroke:#000000;stroke-width:2;stroke-linecap:round;stroke-linejoin:round;stroke-miterlimit:10;}
	.st25{display:inline;fill:none;stroke:#000000;stroke-width:2;stroke-linecap:round;stroke-linejoin:round;stroke-miterlimit:10;}
	.st26{fill:#396DFF;stroke:#000000;stroke-width:2;stroke-miterlimit:10;}
	.st27{display:inline;fill:#6C93FF;stroke:#000000;stroke-width:2;stroke-linejoin:round;stroke-miterlimit:10;}
	.st28{display:inline;fill:#FFFFFF;stroke:#000000;stroke-width:2;stroke-linejoin:round;stroke-miterlimit:10;}
</style>
<g id="Resources" class="st0">
	<rect x="-334" class="st1" width="288" height="288"/>
</g>
<g id="Gear_1_" class="st0">
	<path class="st2" d="M-191.4,83.3l10.9-1.9l-3.1-17.3l-11.4,2c-1-2.2-2.3-4.2-3.7-6.1l7-8.3l-13.5-11.3l-7.1,8.5
		c-2.3-1.1-4.6-1.9-7.1-2.5V36.1h-17.6v10.2c-2.7,0.7-5.2,1.6-7.6,2.8l-6-7.1L-264,53.2l6,7.2c-1.7,2.3-3.1,4.8-4.2,7.5l-8.5-1.5
		l-1.9,11c2.5-0.8,5.1-1.2,7.9-1.2c4.5,0,8.7,1.1,12.2,3c1.4-12.3,11.8-21.8,24.4-21.8c13.6,0,24.5,11,24.5,24.5s-11,24.5-24.5,24.5
		c-5.4,0-10.4-1.8-14.5-4.7c-0.4,1.2-1,2.3-1.7,3.4v16.1h-5l-0.4,1l16.5,6l3.5-9.6c0.5,0,1,0,1.5,0c2.2,0,4.3-0.2,6.4-0.6l3.4,9.2
		l16.5-6l-3.8-10.4c2-1.5,3.8-3.2,5.4-5.1l9.2,5.3l8.8-15.2l-10.1-5.8C-191.8,88-191.5,85.7-191.4,83.3z"/>
</g>
<g id="Layer_10">
	<path class="st3" d="M-234.1,53.5l-1.9-10.9l-17.3,3l2,11.4c-2.2,1-4.2,2.3-6.1,3.7l-8.3-7l-11.3,13.4l8.4,7.1
		c-1.1,2.2-2,4.6-2.6,7.1l-10.2,0l-0.1,17.6l10.2,0c0.6,2.7,1.6,5.2,2.8,7.7l-7.2,6l11.2,13.5l7.2-6c2.3,1.7,4.8,3.1,7.5,4.2
		l-1.5,8.5l11,2c-0.7-2.5-1.2-5.1-1.1-7.9c0-4.5,1.1-8.7,3-12.2c-12.3-1.4-21.8-11.8-21.7-24.5c0.1-13.6,11.1-24.5,24.6-24.4
		c13.6,0.1,24.5,11.1,24.4,24.6c0,5.4-1.8,10.4-4.8,14.5c1.2,0.4,2.3,1,3.4,1.7l16.1,0.1l0,5l1,0.4l6.1-16.5l-9.5-3.5
		c0-0.5,0-1,0-1.5c0-2.2-0.2-4.3-0.5-6.4l9.3-3.3l-5.9-16.5l-10.4,3.7c-1.5-2-3.2-3.8-5.1-5.4l5.4-9.2l-15.2-8.8l-5.8,10
		C-229.4,54-231.7,53.6-234.1,53.5z"/>
	<g class="st0">
		<g class="st4">
			<line class="st5" x1="-112.8" y1="105.7" x2="-112" y2="109.1"/>
			<line class="st5" x1="-106.2" y1="107.5" x2="-108.8" y2="110"/>
			<line class="st5" x1="-104.5" y1="114.2" x2="-107.9" y2="113.1"/>
			<line class="st5" x1="-109.4" y1="119" x2="-110.2" y2="115.5"/>
			<line class="st5" x1="-116" y1="117.2" x2="-113.4" y2="114.7"/>
			<line class="st5" x1="-117.7" y1="110.5" x2="-114.3" y2="111.5"/>
			<line class="st5" x1="-112.8" y1="105.7" x2="-112" y2="109.1"/>
		</g>
	</g>
</g>
<g id="Lines">
	<path class="st6" d="M-305.2,190c-6.9,0-12.5,5.6-12.5,12.5c0,6.9,5.6,12.5,12.5,12.5h12.5V190H-305.2z"/>
	<path class="st6" d="M-84.1,148.2L-84.1,148.2l-44.4,0v33.9h43.3c0.4,0,0.8,0.1,1.1,0.1c9.4,0,17-7.6,17-17S-74.8,148.2-84.1,148.2
		z"/>
</g>
<g id="Cloud" class="st0">
	<path class="st7" d="M-241.6,96c0-10.9-10.4-19.7-23.2-19.7c-12,0-21.8,7.7-23.1,17.6c-1.2-0.3-2.5-0.5-3.9-0.5
		c-6.1,0-11.1,3.8-11.1,8.5c0,0.9,0.2,1.7,0.5,2.5h-0.5c-4.7,0-8.5,3.8-8.5,8.5s3.8,8.5,8.5,8.5h58.5v-16.1
		C-242.5,102.4-241.6,99.3-241.6,96z"/>
</g>
<g id="Code1">
	<rect x="-292.7" y="150.8" class="st8" width="87.9" height="75.5"/>
	<line class="st9" x1="-292.7" y1="161.9" x2="-252.4" y2="161.9"/>
	<line class="st10" x1="-279.6" y1="185.8" x2="-267.6" y2="185.8"/>
	<line class="st11" x1="-263.4" y1="185.8" x2="-251.4" y2="185.8"/>
	<line class="st10" x1="-279.6" y1="191.7" x2="-267.6" y2="191.7"/>
	<line class="st11" x1="-273.6" y1="209.2" x2="-250.4" y2="209.2"/>
	<line class="st12" x1="-246.4" y1="209.2" x2="-239.6" y2="209.2"/>
	<line class="st13" x1="-273.6" y1="215.1" x2="-266.8" y2="215.1"/>
	<line class="st11" x1="-263.2" y1="215.1" x2="-239.6" y2="215.1"/>
	<line class="st11" x1="-235.8" y1="209.2" x2="-220.5" y2="209.2"/>
	<line class="st11" x1="-263.4" y1="191.7" x2="-251.4" y2="191.7"/>
	<line class="st11" x1="-279.6" y1="197.5" x2="-255.2" y2="197.5"/>
	<line class="st13" x1="-286.2" y1="168.3" x2="-278.2" y2="168.3"/>
	<line class="st11" x1="-274.5" y1="168.3" x2="-258.6" y2="168.3"/>
	<line class="st14" x1="-255.4" y1="168.3" x2="-253.5" y2="168.3"/>
	<line class="st11" x1="-274.5" y1="174.2" x2="-264.2" y2="174.2"/>
	<line class="st11" x1="-255.4" y1="174.2" x2="-245.1" y2="174.2"/>
	<line class="st14" x1="-260.7" y1="174.2" x2="-258.8" y2="174.2"/>
	<line class="st13" x1="-286.2" y1="174.2" x2="-278.2" y2="174.2"/>
	<line class="st11" x1="-268.9" y1="180" x2="-252.1" y2="180"/>
	<line class="st14" x1="-286.2" y1="180" x2="-272.6" y2="180"/>
	<line class="st13" x1="-279.6" y1="203.4" x2="-271.6" y2="203.4"/>
	<line class="st14" x1="-279.6" y1="220.9" x2="-278.2" y2="220.9"/>
</g>
<g id="Browser">
	<rect x="-251.4" y="89.5" class="st8" width="122.8" height="110.9"/>
	<rect x="-243" y="123.7" class="st15" width="105.9" height="19.4"/>
	<rect x="-243" y="148.2" class="st15" width="20.5" height="51.3"/>
	<rect x="-218.3" y="148.3" class="st15" width="81.3" height="51.3"/>
	<rect x="-243" y="112.4" class="st9" width="105.9" height="87.1"/>
	<line class="st9" x1="-251.4" y1="105.6" x2="-128.6" y2="105.6"/>
	<circle id="Ellipse_8" class="st16" cx="-241.5" cy="97.4" r="3.7"/>
	<circle id="Ellipse_10" class="st17" cx="-230.1" cy="97.4" r="3.7"/>
	<path class="st18" d="M-155.2,136.9c0,0-14.2-3-23.2,5.1c-5.3,4.8-8.5,12-10.2,17.1c-3-5-7.6-11.4-13-15.4c-9.8-7.1-26.5-3-26.5-3
		s5.4,13.3,16.3,19.9c7.8,4.7,18,5.1,23,4.4c4.1-0.3,15.9-1.6,24.3-7.7C-154.1,149.8-155.2,136.9-155.2,136.9z"/>
	<path class="st19" d="M-122.2,113.3"/>
	<path class="st6" d="M-188.6,159.1c3.3,9.9,3.9,19.6,3.6,24.8c-0.4,7.1,0.4,14.7-7.6,23.8c-2.9,3.3-7.1,7.4-11.1,7.4"/>
	<line class="st20" x1="-238.6" y1="118.7" x2="-208.3" y2="118.7"/>
</g>
<g id="Eyedropper">
	<g>
		<g>
			<path class="st21" d="M-142.8,106.1l-20.1,20.1c-0.2,0.2-0.2,0.5,0,0.6l0.7,0.7l-1.9,1.9l2,2l1.9-1.9l0.7,0.7
				c0.2,0.2,0.5,0.2,0.6,0l20.1-20.1c1.1-1.1,1.1-2.9,0-4C-139.9,105-141.7,105-142.8,106.1z"/>
			<line class="st21" x1="-149.4" y1="110.2" x2="-142.9" y2="116.8"/>
		</g>
		<path class="st22" d="M-138.8,110.2l-5.3,5.3l-4.1-4.1l5.3-5.3c1.1-1.1,2.9-1.1,4.1,0v0C-137.7,107.3-137.7,109.1-138.8,110.2z"/>
	</g>
	<path class="st23" d="M-163.7,142.1c-2.9,0-3-2.5-2.9-3.5c0.2-1,1.4-3.8,1.4-3.8l1.4-3.8l1.4,3.8c0,0,1.2,2.8,1.4,3.8
		C-160.7,139.6-160.8,142.1-163.7,142.1z"/>
	<g class="st0">
		<path class="st24" d="M-143.5,135.1l-5.2,5.2c-1.5,1.5-3.9,1.5-5.3,0l-9.5-9.5l10.5-10.5l9.5,9.5
			C-142,131.2-142,133.6-143.5,135.1z"/>
		<path class="st25" d="M-146.8,125.5v-6.3c0-1.9-1.4-3.5-3.2-3.5l0,0c-1.8,0-3.2,1.6-3.2,3.5v6.3"/>
	</g>
</g>
<g id="Database">
	<g>
		<path class="st18" d="M-144.7,203.9v17.5c0,3.2,13.5,5.8,30.2,5.8s30.2-2.6,30.2-5.8v-17.5H-144.7z"/>
		<path class="st18" d="M-144.7,186.2v17.5c0,3.2,13.5,5.8,30.2,5.8s30.2-2.6,30.2-5.8v-17.5H-144.7z"/>
		<path class="st18" d="M-144.7,169.1v17.5c0,3.2,13.5,5.8,30.2,5.8s30.2-2.6,30.2-5.8v-17.5H-144.7z"/>
		<ellipse class="st18" cx="-114.5" cy="169.1" rx="30.2" ry="5.8"/>
	</g>
	<ellipse class="st26" cx="-92.8" cy="182.1" rx="2" ry="3.5"/>
	<line class="st6" x1="-92" y1="182.1" x2="-83.3" y2="182.1"/>
</g>
<g id="Layer_11">
	<g>
		<path class="st3" d="M85.8,13.5L84,2.6l-17.3,3l2,11.4c-2.2,1-4.2,2.3-6.1,3.7l-8.3-7L42.9,27.1l8.4,7.1c-1.1,2.2-2,4.6-2.6,7.1
			l-10.2,0l-0.1,17.6l10.2,0c0.6,2.7,1.6,5.2,2.8,7.7l-7.2,6L55.5,86l7.2-6c2.3,1.7,4.8,3.1,7.5,4.2l-1.5,8.5l11,2
			c-0.7-2.5-1.2-5.1-1.1-7.9c0-4.5,1.1-8.7,3-12.2c-12.3-1.4-21.8-11.8-21.7-24.5C59.9,36.6,71,25.6,84.5,25.7S109,36.8,109,50.3
			c0,5.4-1.8,10.4-4.8,14.5c1.2,0.4,2.3,1,3.4,1.7l16.1,0.1l0,5l1,0.4l6.1-16.5l-9.5-3.5c0-0.5,0-1,0-1.5c0-2.2-0.2-4.3-0.5-6.4
			l9.3-3.3L124,24.1l-10.4,3.7c-1.5-2-3.2-3.8-5.1-5.4l5.4-9.2L98.7,4.4l-5.8,10C90.6,13.9,88.2,13.6,85.8,13.5z"/>
		<path class="st6" d="M14.7,149.9c-6.9,0-12.5,5.6-12.5,12.5c0,6.9,5.6,12.5,12.5,12.5h12.5v-25.1H14.7z"/>
		<path class="st6" d="M235.8,108.1L235.8,108.1l-44.4,0V142h43.3c0.4,0,0.8,0.1,1.1,0.1c9.4,0,17-7.6,17-17
			S245.2,108.1,235.8,108.1z"/>
		<rect x="27.3" y="110.8" class="st8" width="87.9" height="75.5"/>
		<line class="st9" x1="27.3" y1="121.8" x2="67.5" y2="121.8"/>
		<line class="st10" x1="40.4" y1="145.8" x2="52.3" y2="145.8"/>
		<line class="st11" x1="56.5" y1="145.8" x2="68.5" y2="145.8"/>
		<line class="st10" x1="40.4" y1="151.6" x2="52.3" y2="151.6"/>
		<line class="st11" x1="46.4" y1="169.1" x2="69.6" y2="169.1"/>
		<line class="st12" x1="73.6" y1="169.1" x2="80.4" y2="169.1"/>
		<line class="st13" x1="46.4" y1="175" x2="53.2" y2="175"/>
		<line class="st11" x1="56.8" y1="175" x2="80.4" y2="175"/>
		<line class="st11" x1="84.2" y1="169.1" x2="99.5" y2="169.1"/>
		<line class="st11" x1="56.5" y1="151.6" x2="68.5" y2="151.6"/>
		<line class="st11" x1="40.4" y1="157.5" x2="64.8" y2="157.5"/>
		<line class="st13" x1="33.7" y1="128.2" x2="41.7" y2="128.2"/>
		<line class="st11" x1="45.5" y1="128.2" x2="61.3" y2="128.2"/>
		<line class="st14" x1="64.6" y1="128.2" x2="66.5" y2="128.2"/>
		<line class="st11" x1="45.5" y1="134.1" x2="55.7" y2="134.1"/>
		<line class="st11" x1="64.6" y1="134.1" x2="74.8" y2="134.1"/>
		<line class="st14" x1="59.3" y1="134.1" x2="61.2" y2="134.1"/>
		<line class="st13" x1="33.7" y1="134.1" x2="41.7" y2="134.1"/>
		<line class="st11" x1="51.1" y1="139.9" x2="67.8" y2="139.9"/>
		<line class="st14" x1="33.7" y1="139.9" x2="47.4" y2="139.9"/>
		<line class="st13" x1="40.4" y1="163.3" x2="48.3" y2="163.3"/>
		<line class="st14" x1="40.4" y1="180.8" x2="41.7" y2="180.8"/>
		<rect x="68.5" y="49.4" class="st8" width="122.8" height="110.9"/>
		<rect x="77" y="83.6" class="st15" width="105.9" height="19.4"/>
		<rect x="77" y="108.1" class="st15" width="20.5" height="51.3"/>
		<rect x="101.7" y="108.2" class="st15" width="81.3" height="51.3"/>
		<rect x="77" y="72.3" class="st9" width="105.9" height="87.1"/>
		<line class="st9" x1="68.5" y1="65.5" x2="191.4" y2="65.5"/>
		<circle id="Ellipse_8_1_" class="st16" cx="78.4" cy="57.3" r="3.7"/>
		<circle id="Ellipse_10_1_" class="st17" cx="89.8" cy="57.3" r="3.7"/>
		<path class="st18" d="M164.7,96.8c0,0-14.2-3-23.2,5.1c-5.3,4.8-8.5,12-10.2,17.1c-3-5-7.6-11.4-13-15.4c-9.8-7.1-26.5-3-26.5-3
			s5.4,13.3,16.3,19.9c7.8,4.7,18,5.1,23,4.4c4.1-0.3,15.9-1.6,24.3-7.7C165.8,109.7,164.7,96.8,164.7,96.8z"/>
		<path class="st19" d="M197.7,73.2"/>
		<path class="st6" d="M131.3,119c3.3,9.9,3.9,19.6,3.6,24.8c-0.4,7.1,0.4,14.7-7.6,23.8c-2.9,3.3-7.1,7.4-11.1,7.4"/>
		<line class="st20" x1="81.4" y1="78.6" x2="111.6" y2="78.6"/>
		<g>
			<g>
				<path class="st21" d="M177.2,66.1L157,86.2c-0.2,0.2-0.2,0.5,0,0.6l0.7,0.7l-1.9,1.9l2,2l1.9-1.9l0.7,0.7c0.2,0.2,0.5,0.2,0.6,0
					l20.1-20.1c1.1-1.1,1.1-2.9,0-4C180.1,65,178.3,65,177.2,66.1z"/>
				<line class="st21" x1="170.5" y1="70.2" x2="177.1" y2="76.7"/>
			</g>
			<path class="st22" d="M181.2,70.1l-5.3,5.3l-4.1-4.1l5.3-5.3c1.1-1.1,2.9-1.1,4.1,0v0C182.3,67.2,182.3,69,181.2,70.1z"/>
		</g>
		<path class="st23" d="M156.3,102c-2.9,0-3-2.5-2.9-3.5c0.2-1,1.4-3.8,1.4-3.8l1.4-3.8l1.4,3.8c0,0,1.2,2.8,1.4,3.8
			C159.3,99.5,159.1,102,156.3,102z"/>
		<g>
			<path class="st18" d="M175.3,163.8v17.5c0,3.2,13.5,5.8,30.2,5.8s30.2-2.6,30.2-5.8v-17.5H175.3z"/>
			<path class="st18" d="M175.3,146.1v17.5c0,3.2,13.5,5.8,30.2,5.8s30.2-2.6,30.2-5.8v-17.5H175.3z"/>
			<path class="st18" d="M175.3,129v17.5c0,3.2,13.5,5.8,30.2,5.8s30.2-2.6,30.2-5.8V129H175.3z"/>
			<ellipse class="st18" cx="205.5" cy="129" rx="30.2" ry="5.8"/>
		</g>
		<ellipse class="st26" cx="227.1" cy="142" rx="2" ry="3.5"/>
		<line class="st6" x1="228" y1="142" x2="236.7" y2="142"/>
	</g>
</g>
<g id="Wireframes" class="st0">
	<rect x="-160.5" y="179.4" class="st27" width="44.8" height="34.5"/>
	<line class="st25" x1="-160.5" y1="179.4" x2="-115.7" y2="213.9"/>
	<line class="st25" x1="-160.5" y1="213.9" x2="-115.7" y2="179.4"/>
	<rect x="-106.5" y="179.4" class="st27" width="44.8" height="34.5"/>
	<line class="st25" x1="-106.5" y1="179.4" x2="-61.7" y2="213.9"/>
	<line class="st25" x1="-106.5" y1="213.9" x2="-61.7" y2="179.4"/>
	<line class="st25" x1="-160.5" y1="221.2" x2="-115.7" y2="221.2"/>
	<line class="st25" x1="-160.5" y1="228.5" x2="-115.7" y2="228.5"/>
	<line class="st25" x1="-106.5" y1="221.2" x2="-61.7" y2="221.2"/>
	<line class="st25" x1="-106.5" y1="228.5" x2="-61.7" y2="228.5"/>
	<rect x="-251.4" y="69.7" class="st28" width="109.1" height="9.9"/>
	<polygon class="st24" points="-142.3,74.7 -142.3,69.7 -135.7,72.2 -129.2,74.7 -135.7,77.1 -142.3,79.6 	"/>
	<line class="st25" x1="-239.8" y1="69.7" x2="-239.8" y2="78.6"/>
	<line class="st25" x1="-236" y1="69.7" x2="-236" y2="78.6"/>
</g>
</svg>
