<?xml version="1.0" encoding="utf-8"?>
<!-- Generator: Adobe Illustrator 22.0.1, SVG Export Plug-In . SVG Version: 6.00 Build 0)  -->
<svg version="1.1" xmlns="http://www.w3.org/2000/svg" xmlns:xlink="http://www.w3.org/1999/xlink" x="0px" y="0px"
	 viewBox="0 0 1921.9 861.9" style="enable-background:new 0 0 1921.9 861.9;" xml:space="preserve">
<style type="text/css">
	.st0{display:none;}
	.st1{display:inline;fill:#396DFF;}
	.st2{fill:url(#SVGID_1_);stroke:#FFFFFF;stroke-miterlimit:10;stroke-opacity:0.42;}
	.st3{fill:url(#SVGID_2_);stroke:#FFFFFF;stroke-miterlimit:10;stroke-opacity:0.42;}
	.st4{fill:url(#SVGID_3_);stroke:#FFFFFF;stroke-miterlimit:10;stroke-opacity:0.42;}
</style>
<g id="Layer_2" class="st0">
	<rect class="st1" width="1910.6" height="861.9"/>
</g>
<g id="Layer_1">
	<g id="Group_68" transform="translate(0 0.41)">
		<linearGradient id="SVGID_1_" gradientUnits="userSpaceOnUse" x1="772.3922" y1="1089.3427" x2="1034.4965" y2="175.2763">
			<stop  offset="0" style="stop-color:#0A369D;stop-opacity:0"/>
			<stop  offset="1" style="stop-color:#FFFFFF;stop-opacity:0.2"/>
		</linearGradient>
		<path class="st2" d="M69.5-6.8c0,0,963.8,472.2,1238.7,544S1929,431.8,1929,431.8v434.4H-5.9v-873H69.5z"/>
		<linearGradient id="SVGID_2_" gradientUnits="userSpaceOnUse" x1="772.3922" y1="1089.3717" x2="1035.6503" y2="171.2818">
			<stop  offset="0" style="stop-color:#0A369D;stop-opacity:0"/>
			<stop  offset="1" style="stop-color:#FFFFFF;stop-opacity:0.2"/>
		</linearGradient>
		<path class="st3" d="M416-6.4c0,0,166.6,376.5,415.5,514.5C1171.6,696.6,1929,579.7,1929,579.7v286.5H-5.9v-873L416-6.4z"/>
		<linearGradient id="SVGID_3_" gradientUnits="userSpaceOnUse" x1="807.9843" y1="1099.5713" x2="1046.1362" y2="269.0366">
			<stop  offset="0" style="stop-color:#0A369D;stop-opacity:0"/>
			<stop  offset="1" style="stop-color:#FFFFFF;stop-opacity:0.2"/>
		</linearGradient>
		<path class="st4" d="M-5.9,261.8c0,0,675.7,348.2,956.4,394.5c283.9,46.9,978.5-134.1,978.5-134.1v344H-5.9V261.8z"/>
	</g>
</g>
</svg>
