<svg xmlns="http://www.w3.org/2000/svg" viewBox="0 0 229.306 207">
  <defs>
    <style>
      .cls-1 {
        fill: #f95458;
      }

      .cls-2, .cls-3, .cls-7 {
        fill: #fff;
      }

      .cls-4, .cls-8 {
        fill: none;
      }

      .cls-4 {
        stroke: #fff;
        stroke-width: 16px;
      }

      .cls-5 {
        fill: #98d01b;
      }

      .cls-6, .cls-7 {
        stroke: none;
      }
    </style>
  </defs>
  <g id="Group_61" data-name="Group 61" transform="translate(-296 -265)">
    <circle id="Ellipse_8" data-name="Ellipse 8" class="cls-1" cx="11" cy="11" r="11" transform="translate(322 284)"/>
    <g id="Group_39" data-name="Group 39" transform="translate(196 172)">
      <g id="Exclusion_1" data-name="Exclusion 1" class="cls-2" transform="translate(2055 2718)">
        <path class="cls-6" d="M -1745.694946289062 -2575 L -1877.562622070312 -2575 C -1874.424438476562 -2576.00634765625 -1871.548706054688 -2577.7529296875 -1869.151123046875 -2580.150390625 C -1865.184448242188 -2584.116943359375 -1863 -2589.390380859375 -1863 -2594.999755859375 C -1863 -2600.609130859375 -1865.184448242188 -2605.882568359375 -1869.150756835938 -2609.848876953125 C -1871.549072265625 -2612.247314453125 -1874.425170898438 -2613.993896484375 -1877.564697265625 -2615.000244140625 L -1745.694946289062 -2615.000244140625 C -1744.340576171875 -2615.000244140625 -1743.031982421875 -2614.7373046875 -1741.805419921875 -2614.218505859375 C -1740.615600585938 -2613.715087890625 -1739.545043945312 -2612.99267578125 -1738.623657226562 -2612.0712890625 C -1737.70166015625 -2611.149169921875 -1736.97900390625 -2610.07861328125 -1736.475830078125 -2608.888916015625 C -1735.957275390625 -2607.662841796875 -1735.694213867188 -2606.35400390625 -1735.694213867188 -2604.999755859375 L -1735.694213867188 -2584.999755859375 C -1735.694213867188 -2583.6455078125 -1735.957275390625 -2582.3369140625 -1736.475952148438 -2581.1103515625 C -1736.979125976562 -2579.921142578125 -1737.70166015625 -2578.8505859375 -1738.623413085938 -2577.9287109375 C -1739.544677734375 -2577.007568359375 -1740.615600585938 -2576.284912109375 -1741.805908203125 -2575.78125 C -1743.031616210938 -2575.26318359375 -1744.340454101562 -2575 -1745.694946289062 -2575 Z M -1890.409423828125 -2575 L -1911.562622070312 -2575 C -1908.42431640625 -2576.00634765625 -1905.548583984375 -2577.7529296875 -1903.151000976562 -2580.150390625 C -1902.359619140625 -2580.94189453125 -1901.639038085938 -2581.78564453125 -1900.99267578125 -2582.67333984375 C -1898.39501953125 -2579.102294921875 -1894.701293945312 -2576.37841796875 -1890.409423828125 -2575 Z M -1924.437255859375 -2575 L -1935 -2575 C -1936.354370117188 -2575 -1937.663208007812 -2575.26318359375 -1938.890014648438 -2575.781982421875 C -1940.078979492188 -2576.28466796875 -1941.1494140625 -2577.007080078125 -1942.071044921875 -2577.9287109375 C -1942.992553710938 -2578.850341796875 -1943.71484375 -2579.920654296875 -1944.217895507812 -2581.10986328125 C -1944.73681640625 -2582.3369140625 -1944.999877929688 -2583.6455078125 -1944.999877929688 -2584.999755859375 L -1944.999877929688 -2604.999755859375 C -1944.999877929688 -2606.35400390625 -1944.73681640625 -2607.662841796875 -1944.217895507812 -2608.8896484375 C -1943.71484375 -2610.0791015625 -1942.992553710938 -2611.1494140625 -1942.071044921875 -2612.071044921875 C -1941.149291992188 -2612.992919921875 -1940.078735351562 -2613.71533203125 -1938.888916015625 -2614.218505859375 C -1937.662841796875 -2614.7373046875 -1936.354370117188 -2615.000244140625 -1935 -2615.000244140625 L -1924.43505859375 -2615.000244140625 C -1927.574462890625 -2613.993896484375 -1930.45068359375 -2612.247314453125 -1932.848999023438 -2609.848876953125 C -1936.815307617188 -2605.882568359375 -1938.999755859375 -2600.609130859375 -1938.999755859375 -2594.999755859375 C -1938.999755859375 -2589.390380859375 -1936.815307617188 -2584.116943359375 -1932.848876953125 -2580.150634765625 C -1930.451293945312 -2577.7529296875 -1927.575561523438 -2576.00634765625 -1924.437255859375 -2575 Z M -1900.99267578125 -2607.326171875 C -1901.638916015625 -2608.214111328125 -1902.359497070312 -2609.0576171875 -1903.15087890625 -2609.848876953125 C -1905.549194335938 -2612.247314453125 -1908.425415039062 -2613.993896484375 -1911.564819335938 -2615.000244140625 L -1890.4072265625 -2615.000244140625 C -1894.699829101562 -2613.6220703125 -1898.394653320312 -2610.897705078125 -1900.99267578125 -2607.326171875 Z"/>
        <path class="cls-7" d="M -1745.694213867188 -2584.999755859375 L -1745.694946289062 -2605.000244140625 L -1854.640380859375 -2605 C -1853.561157226562 -2601.822265625 -1853 -2598.4541015625 -1853 -2594.999755859375 C -1853 -2591.54541015625 -1853.56103515625 -2588.177734375 -1854.640258789062 -2585 L -1745.694946289062 -2585 L -1745.694213867188 -2584.999755859375 M -1745.694946289062 -2565 L -1935 -2565 C -1937.699829101562 -2565 -1940.319091796875 -2565.52880859375 -1942.784912109375 -2566.571533203125 C -1945.166625976562 -2567.578857421875 -1947.305419921875 -2569.02099609375 -1949.14208984375 -2570.857666015625 C -1950.97900390625 -2572.694580078125 -1952.421020507812 -2574.83349609375 -1953.428100585938 -2577.21484375 C -1954.471069335938 -2579.6806640625 -1954.999877929688 -2582.2998046875 -1954.999877929688 -2584.999755859375 L -1954.999877929688 -2604.999755859375 C -1954.999877929688 -2607.699462890625 -1954.471069335938 -2610.31884765625 -1953.428100585938 -2612.784912109375 C -1952.4208984375 -2615.16650390625 -1950.978759765625 -2617.305419921875 -1949.14208984375 -2619.14208984375 C -1947.305541992188 -2620.978759765625 -1945.166748046875 -2622.4208984375 -1942.784912109375 -2623.428466796875 C -1940.319213867188 -2624.471435546875 -1937.699951171875 -2625.000244140625 -1935 -2625.000244140625 L -1745.694946289062 -2625.000244140625 C -1742.994995117188 -2625.000244140625 -1740.375732421875 -2624.471435546875 -1737.909912109375 -2623.428466796875 C -1735.52783203125 -2622.4208984375 -1733.388916015625 -2620.978759765625 -1731.552368164062 -2619.14208984375 C -1729.715576171875 -2617.30517578125 -1728.2734375 -2615.16650390625 -1727.265991210938 -2612.784912109375 C -1726.223022460938 -2610.31884765625 -1725.694213867188 -2607.69970703125 -1725.694213867188 -2604.999755859375 L -1725.694213867188 -2584.999755859375 C -1725.694213867188 -2582.2998046875 -1726.223022460938 -2579.6806640625 -1727.265991210938 -2577.21484375 C -1728.273315429688 -2574.83349609375 -1729.715454101562 -2572.694580078125 -1731.552368164062 -2570.857666015625 C -1733.389038085938 -2569.021240234375 -1735.528076171875 -2567.5791015625 -1737.909912109375 -2566.571533203125 C -1740.375854492188 -2565.52880859375 -1742.9951171875 -2565 -1745.694946289062 -2565 Z M -1883.999755859375 -2605.99951171875 C -1890.065551757812 -2605.99951171875 -1895.00048828125 -2601.06494140625 -1895.00048828125 -2594.999755859375 C -1895.00048828125 -2588.9345703125 -1890.065551757812 -2584 -1883.999755859375 -2584 C -1881.061645507812 -2584 -1878.299438476562 -2585.144287109375 -1876.221801757812 -2587.2216796875 C -1874.144165039062 -2589.29931640625 -1873 -2592.061767578125 -1873 -2594.999755859375 C -1873 -2597.937744140625 -1874.144165039062 -2600.7001953125 -1876.221801757812 -2602.77783203125 C -1878.299438476562 -2604.85546875 -1881.061645507812 -2605.99951171875 -1883.999755859375 -2605.99951171875 Z M -1918 -2605.99951171875 C -1920.938110351562 -2605.99951171875 -1923.700317382812 -2604.85546875 -1925.777954101562 -2602.77783203125 C -1927.855590820312 -2600.7001953125 -1928.999755859375 -2597.937744140625 -1928.999755859375 -2594.999755859375 C -1928.999755859375 -2592.061767578125 -1927.855590820312 -2589.29931640625 -1925.777954101562 -2587.2216796875 C -1923.700439453125 -2585.144287109375 -1920.938110351562 -2584 -1918 -2584 C -1915.061767578125 -2584 -1912.299438476562 -2585.144287109375 -1910.221923828125 -2587.2216796875 C -1908.144287109375 -2589.29931640625 -1907.000122070312 -2592.061767578125 -1907.000122070312 -2594.999755859375 C -1907.000122070312 -2597.937744140625 -1908.144287109375 -2600.7001953125 -1910.221923828125 -2602.77783203125 C -1912.299560546875 -2604.85546875 -1915.061767578125 -2605.99951171875 -1918 -2605.99951171875 Z"/>
      </g>
      <path id="Path_58" data-name="Path 58" class="cls-3" d="M21.148,0S39.735,14.076,37.29,37.113,16.673,81.039,16.673,81.039,0,58.836,0,37.128,21.148,0,21.148,0Z" transform="translate(261.142 160.305) rotate(48)"/>
      <path id="Path_59" data-name="Path 59" class="cls-3" d="M8.258,0S31.914,19.821,31.914,41.657,17.191,89.729,17.191,89.729-1.694,67.693-3.529,44.79,8.258,0,8.258,0Z" transform="matrix(0.588, -0.809, 0.809, 0.588, 139.223, 189.618)"/>
      <path id="Path_60" data-name="Path 60" class="cls-3" d="M32.22,5.6c-8.8-2.4-19.949,20.264-20.415,21.2C5.814,38.895.506,61.979,3.723,65.077c-7.876-4.366-16.954-8.834-17.055-9.454C-14,51.549,16.7,5.558,9.339-1.649S40.781,1.642,32.22,5.6Z" transform="matrix(0.875, -0.485, 0.485, 0.875, 198.825, 232.105)"/>
      <g id="Rectangle_7" data-name="Rectangle 7" class="cls-4" transform="translate(100 93)">
        <rect class="cls-6" width="229.305" height="207" rx="20"/>
        <rect class="cls-8" x="8" y="8" width="213.305" height="191" rx="12"/>
      </g>
    </g>
    <circle id="Ellipse_10" data-name="Ellipse 10" class="cls-5" cx="11" cy="11" r="11" transform="translate(356 284)"/>
  </g>
</svg>
